<mxfile host="app.diagrams.net" modified="2023-03-01T08:31:26.276Z" agent="5.0 (Windows NT 10.0; Win64; x64) AppleWebKit/537.36 (KHTML, like Gecko) Chrome/110.0.0.0 Safari/537.36" etag="9SlGoE3v9-zIG5e-GmnD" version="20.8.23" type="github">
  <diagram id="Z87XCZslrCXwQrkr19RX" name="Page-1">
    <mxGraphModel dx="2876" dy="1010" grid="1" gridSize="10" guides="1" tooltips="1" connect="1" arrows="1" fold="1" page="1" pageScale="1" pageWidth="827" pageHeight="1169" math="0" shadow="0">
      <root>
        <mxCell id="0" />
        <mxCell id="1" parent="0" />
        <mxCell id="3E0iWw752qiQZYeKXhpK-32" value="transport.emit(&#39;connect&#39;, dtlsParameter);" style="text;strokeColor=none;align=center;fillColor=none;html=1;verticalAlign=middle;whiteSpace=wrap;rounded=0;" parent="1" vertex="1">
          <mxGeometry x="-637" y="592.35" width="296.5" height="40" as="geometry" />
        </mxCell>
        <mxCell id="VE9qQbwJ7asa3l0-s3IV-39" value="" style="rounded=0;whiteSpace=wrap;html=1;" parent="1" vertex="1">
          <mxGeometry x="-610" y="70" width="120" height="40" as="geometry" />
        </mxCell>
        <mxCell id="VE9qQbwJ7asa3l0-s3IV-41" value="RoomModule/&lt;br&gt;Livestream.js" style="rounded=0;whiteSpace=wrap;html=1;" parent="1" vertex="1">
          <mxGeometry x="-107" y="191" width="90" height="30" as="geometry" />
        </mxCell>
        <mxCell id="VE9qQbwJ7asa3l0-s3IV-44" value="" style="endArrow=none;html=1;rounded=0;" parent="1" edge="1">
          <mxGeometry width="50" height="50" relative="1" as="geometry">
            <mxPoint x="-600" y="180" as="sourcePoint" />
            <mxPoint x="-260" y="180" as="targetPoint" />
          </mxGeometry>
        </mxCell>
        <mxCell id="VE9qQbwJ7asa3l0-s3IV-45" value="" style="endArrow=none;html=1;rounded=0;" parent="1" edge="1">
          <mxGeometry width="50" height="50" relative="1" as="geometry">
            <mxPoint x="-130" y="180" as="sourcePoint" />
            <mxPoint x="-20.5" y="180" as="targetPoint" />
          </mxGeometry>
        </mxCell>
        <mxCell id="VE9qQbwJ7asa3l0-s3IV-46" value="Client" style="text;strokeColor=none;align=center;fillColor=none;html=1;verticalAlign=middle;whiteSpace=wrap;rounded=0;" parent="1" vertex="1">
          <mxGeometry x="-610" y="130" width="60" height="30" as="geometry" />
        </mxCell>
        <mxCell id="VE9qQbwJ7asa3l0-s3IV-47" value="Server" style="text;strokeColor=none;align=center;fillColor=none;html=1;verticalAlign=middle;whiteSpace=wrap;rounded=0;" parent="1" vertex="1">
          <mxGeometry x="-130" y="140" width="60" height="30" as="geometry" />
        </mxCell>
        <mxCell id="VE9qQbwJ7asa3l0-s3IV-49" value="livestream :&lt;br&gt;consume" style="text;strokeColor=none;align=center;fillColor=none;html=1;verticalAlign=middle;whiteSpace=wrap;rounded=0;" parent="1" vertex="1">
          <mxGeometry x="-600" y="75" width="100" height="30" as="geometry" />
        </mxCell>
        <mxCell id="VE9qQbwJ7asa3l0-s3IV-75" value="" style="rounded=0;whiteSpace=wrap;html=1;rotation=90;" parent="1" vertex="1">
          <mxGeometry x="-90.82" y="457.97" width="57.63" height="20" as="geometry" />
        </mxCell>
        <mxCell id="3E0iWw752qiQZYeKXhpK-3" value="RoomModule/&lt;br&gt;MediasoupInterface" style="rounded=0;whiteSpace=wrap;html=1;" parent="1" vertex="1">
          <mxGeometry x="-394.15" y="191" width="120" height="30" as="geometry" />
        </mxCell>
        <mxCell id="3E0iWw752qiQZYeKXhpK-4" value="" style="endArrow=none;dashed=1;html=1;dashPattern=1 3;strokeWidth=2;rounded=0;entryX=0.5;entryY=1;entryDx=0;entryDy=0;startArrow=none;exitX=0;exitY=0.5;exitDx=0;exitDy=0;" parent="1" source="3E0iWw752qiQZYeKXhpK-5" target="3E0iWw752qiQZYeKXhpK-3" edge="1">
          <mxGeometry width="50" height="50" relative="1" as="geometry">
            <mxPoint x="-334.15" y="295.5000000000002" as="sourcePoint" />
            <mxPoint x="-332.4" y="280" as="targetPoint" />
          </mxGeometry>
        </mxCell>
        <mxCell id="3E0iWw752qiQZYeKXhpK-5" value="" style="rounded=0;whiteSpace=wrap;html=1;rotation=90;spacing=4;" parent="1" vertex="1">
          <mxGeometry x="-384.24" y="437.6" width="100.17" height="20" as="geometry" />
        </mxCell>
        <mxCell id="3E0iWw752qiQZYeKXhpK-14" value="socket.on(&#39;consume&#39;, {userId, producerId})" style="text;strokeColor=none;align=center;fillColor=none;html=1;verticalAlign=middle;whiteSpace=wrap;rounded=0;" parent="1" vertex="1">
          <mxGeometry x="-581.75" y="380" width="238.25" height="30" as="geometry" />
        </mxCell>
        <mxCell id="3E0iWw752qiQZYeKXhpK-13" value="" style="endArrow=none;html=1;rounded=0;exitX=1;exitY=1;exitDx=0;exitDy=0;entryX=0;entryY=1;entryDx=0;entryDy=0;startArrow=classic;startFill=1;endFill=0;" parent="1" source="3E0iWw752qiQZYeKXhpK-14" target="3E0iWw752qiQZYeKXhpK-14" edge="1">
          <mxGeometry width="50" height="50" relative="1" as="geometry">
            <mxPoint x="-511.75" y="440" as="sourcePoint" />
            <mxPoint x="-671.75" y="440" as="targetPoint" />
          </mxGeometry>
        </mxCell>
        <mxCell id="3E0iWw752qiQZYeKXhpK-16" value="createRecvTransport" style="text;strokeColor=none;align=center;fillColor=none;html=1;verticalAlign=middle;whiteSpace=wrap;rounded=0;" parent="1" vertex="1">
          <mxGeometry x="-320" y="411.65" width="240" height="30" as="geometry" />
        </mxCell>
        <mxCell id="3E0iWw752qiQZYeKXhpK-17" value="" style="endArrow=classic;html=1;rounded=0;exitX=0;exitY=1;exitDx=0;exitDy=0;entryX=1;entryY=1;entryDx=0;entryDy=0;" parent="1" source="3E0iWw752qiQZYeKXhpK-16" target="3E0iWw752qiQZYeKXhpK-16" edge="1">
          <mxGeometry width="50" height="50" relative="1" as="geometry">
            <mxPoint x="-410" y="460" as="sourcePoint" />
            <mxPoint x="-360" y="410" as="targetPoint" />
          </mxGeometry>
        </mxCell>
        <mxCell id="3E0iWw752qiQZYeKXhpK-18" value="" style="endArrow=classic;html=1;rounded=0;exitX=1;exitY=1;exitDx=0;exitDy=0;entryX=0;entryY=1;entryDx=0;entryDy=0;" parent="1" source="3E0iWw752qiQZYeKXhpK-19" target="3E0iWw752qiQZYeKXhpK-19" edge="1">
          <mxGeometry width="50" height="50" relative="1" as="geometry">
            <mxPoint x="82.99999999999955" y="584.0000000000001" as="sourcePoint" />
            <mxPoint x="-317" y="584.0000000000001" as="targetPoint" />
          </mxGeometry>
        </mxCell>
        <mxCell id="3E0iWw752qiQZYeKXhpK-19" value="callback" style="text;strokeColor=none;align=center;fillColor=none;html=1;verticalAlign=middle;whiteSpace=wrap;rounded=0;" parent="1" vertex="1">
          <mxGeometry x="-317" y="453.53" width="237" height="30" as="geometry" />
        </mxCell>
        <mxCell id="3E0iWw752qiQZYeKXhpK-21" value="consume" style="text;strokeColor=none;align=center;fillColor=none;html=1;verticalAlign=middle;whiteSpace=wrap;rounded=0;" parent="1" vertex="1">
          <mxGeometry x="-317" y="622.35" width="247" height="30" as="geometry" />
        </mxCell>
        <mxCell id="3E0iWw752qiQZYeKXhpK-22" value="" style="endArrow=classic;html=1;rounded=0;exitX=0;exitY=1;exitDx=0;exitDy=0;entryX=1;entryY=1;entryDx=0;entryDy=0;" parent="1" source="3E0iWw752qiQZYeKXhpK-21" target="3E0iWw752qiQZYeKXhpK-21" edge="1">
          <mxGeometry width="50" height="50" relative="1" as="geometry">
            <mxPoint x="-407" y="552.35" as="sourcePoint" />
            <mxPoint x="-357" y="502.35" as="targetPoint" />
          </mxGeometry>
        </mxCell>
        <mxCell id="3E0iWw752qiQZYeKXhpK-23" value="" style="rounded=0;whiteSpace=wrap;html=1;rotation=90;" parent="1" vertex="1">
          <mxGeometry x="-83.69999999999999" y="661.0400000000001" width="49.39" height="20" as="geometry" />
        </mxCell>
        <mxCell id="3E0iWw752qiQZYeKXhpK-24" value="&amp;nbsp; &amp;nbsp; &amp;nbsp; create consumer" style="text;strokeColor=none;align=center;fillColor=none;html=1;verticalAlign=middle;whiteSpace=wrap;rounded=0;" parent="1" vertex="1">
          <mxGeometry x="-47.5" y="656.0400000000001" width="240" height="30" as="geometry" />
        </mxCell>
        <mxCell id="3E0iWw752qiQZYeKXhpK-25" value="" style="endArrow=classic;html=1;rounded=0;exitX=0;exitY=0;exitDx=0;exitDy=0;entryX=0;entryY=1;entryDx=0;entryDy=0;" parent="1" source="3E0iWw752qiQZYeKXhpK-24" target="3E0iWw752qiQZYeKXhpK-24" edge="1">
          <mxGeometry width="50" height="50" relative="1" as="geometry">
            <mxPoint x="-567.5" y="552.35" as="sourcePoint" />
            <mxPoint x="-517.5" y="502.35" as="targetPoint" />
            <Array as="points">
              <mxPoint x="32.5" y="656.35" />
              <mxPoint x="32.5" y="686.35" />
            </Array>
          </mxGeometry>
        </mxCell>
        <mxCell id="3E0iWw752qiQZYeKXhpK-27" value="callback" style="text;strokeColor=none;align=center;fillColor=none;html=1;verticalAlign=middle;whiteSpace=wrap;rounded=0;" parent="1" vertex="1">
          <mxGeometry x="-317" y="661.35" width="237" height="30" as="geometry" />
        </mxCell>
        <mxCell id="3E0iWw752qiQZYeKXhpK-28" value="" style="endArrow=classic;html=1;rounded=0;exitX=1;exitY=1;exitDx=0;exitDy=0;entryX=0;entryY=1;entryDx=0;entryDy=0;" parent="1" source="3E0iWw752qiQZYeKXhpK-27" target="3E0iWw752qiQZYeKXhpK-27" edge="1">
          <mxGeometry width="50" height="50" relative="1" as="geometry">
            <mxPoint x="-407" y="552.35" as="sourcePoint" />
            <mxPoint x="-357" y="502.35" as="targetPoint" />
          </mxGeometry>
        </mxCell>
        <mxCell id="3E0iWw752qiQZYeKXhpK-29" value="" style="rounded=0;whiteSpace=wrap;html=1;rotation=90;spacing=4;" parent="1" vertex="1">
          <mxGeometry x="-385.18" y="669.17" width="102.05" height="20" as="geometry" />
        </mxCell>
        <mxCell id="3E0iWw752qiQZYeKXhpK-30" value="" style="endArrow=classic;html=1;rounded=0;exitX=1;exitY=0;exitDx=0;exitDy=0;entryX=1;entryY=1;entryDx=0;entryDy=0;" parent="1" source="3E0iWw752qiQZYeKXhpK-32" target="3E0iWw752qiQZYeKXhpK-32" edge="1">
          <mxGeometry width="50" height="50" relative="1" as="geometry">
            <mxPoint x="-410" y="442.35" as="sourcePoint" />
            <mxPoint x="-360" y="392.35" as="targetPoint" />
            <Array as="points">
              <mxPoint x="-380" y="592.35" />
              <mxPoint x="-380" y="632.35" />
            </Array>
          </mxGeometry>
        </mxCell>
        <mxCell id="3E0iWw752qiQZYeKXhpK-46" value="" style="rounded=0;whiteSpace=wrap;html=1;rotation=90;spacing=4;" parent="1" vertex="1">
          <mxGeometry x="-372.05" y="550" width="75.79" height="20" as="geometry" />
        </mxCell>
        <mxCell id="3E0iWw752qiQZYeKXhpK-47" value="connectRecvTransport" style="text;strokeColor=none;align=center;fillColor=none;html=1;verticalAlign=middle;whiteSpace=wrap;rounded=0;" parent="1" vertex="1">
          <mxGeometry x="-640" y="490" width="296.5" height="40" as="geometry" />
        </mxCell>
        <mxCell id="3E0iWw752qiQZYeKXhpK-48" value="" style="endArrow=classic;html=1;rounded=0;exitX=1;exitY=0;exitDx=0;exitDy=0;entryX=1;entryY=1;entryDx=0;entryDy=0;" parent="1" source="3E0iWw752qiQZYeKXhpK-47" target="3E0iWw752qiQZYeKXhpK-47" edge="1">
          <mxGeometry width="50" height="50" relative="1" as="geometry">
            <mxPoint x="-413" y="340" as="sourcePoint" />
            <mxPoint x="-363" y="290" as="targetPoint" />
            <Array as="points">
              <mxPoint x="-383" y="490" />
              <mxPoint x="-383" y="530" />
            </Array>
          </mxGeometry>
        </mxCell>
        <mxCell id="3E0iWw752qiQZYeKXhpK-49" value="" style="endArrow=none;dashed=1;html=1;dashPattern=1 3;strokeWidth=2;rounded=0;entryX=1;entryY=0.5;entryDx=0;entryDy=0;exitX=0;exitY=0.5;exitDx=0;exitDy=0;" parent="1" source="3E0iWw752qiQZYeKXhpK-46" target="3E0iWw752qiQZYeKXhpK-5" edge="1">
          <mxGeometry width="50" height="50" relative="1" as="geometry">
            <mxPoint x="-290" y="530" as="sourcePoint" />
            <mxPoint x="-420" y="400" as="targetPoint" />
          </mxGeometry>
        </mxCell>
        <mxCell id="3E0iWw752qiQZYeKXhpK-50" value="" style="endArrow=none;dashed=1;html=1;dashPattern=1 3;strokeWidth=2;rounded=0;entryX=1;entryY=0.5;entryDx=0;entryDy=0;exitX=0;exitY=0.5;exitDx=0;exitDy=0;" parent="1" source="3E0iWw752qiQZYeKXhpK-29" target="3E0iWw752qiQZYeKXhpK-46" edge="1">
          <mxGeometry width="50" height="50" relative="1" as="geometry">
            <mxPoint x="-470" y="450" as="sourcePoint" />
            <mxPoint x="-420" y="400" as="targetPoint" />
          </mxGeometry>
        </mxCell>
        <mxCell id="3E0iWw752qiQZYeKXhpK-52" value="" style="endArrow=none;dashed=1;html=1;dashPattern=1 3;strokeWidth=2;rounded=0;entryX=0.5;entryY=1;entryDx=0;entryDy=0;exitX=0;exitY=0.5;exitDx=0;exitDy=0;" parent="1" source="VE9qQbwJ7asa3l0-s3IV-75" target="VE9qQbwJ7asa3l0-s3IV-41" edge="1">
          <mxGeometry width="50" height="50" relative="1" as="geometry">
            <mxPoint x="-630.5" y="450" as="sourcePoint" />
            <mxPoint x="-580.5" y="400" as="targetPoint" />
          </mxGeometry>
        </mxCell>
        <mxCell id="3E0iWw752qiQZYeKXhpK-53" value="" style="endArrow=none;dashed=1;html=1;dashPattern=1 3;strokeWidth=2;rounded=0;entryX=1;entryY=0.5;entryDx=0;entryDy=0;exitX=0;exitY=0.5;exitDx=0;exitDy=0;" parent="1" source="3E0iWw752qiQZYeKXhpK-23" target="VE9qQbwJ7asa3l0-s3IV-75" edge="1">
          <mxGeometry width="50" height="50" relative="1" as="geometry">
            <mxPoint x="-630.5" y="450" as="sourcePoint" />
            <mxPoint x="-580.5" y="400" as="targetPoint" />
          </mxGeometry>
        </mxCell>
        <mxCell id="3E0iWw752qiQZYeKXhpK-54" value="" style="endArrow=none;dashed=1;html=1;dashPattern=1 3;strokeWidth=2;rounded=0;entryX=1;entryY=0.5;entryDx=0;entryDy=0;exitX=0;exitY=0.5;exitDx=0;exitDy=0;" parent="1" target="3E0iWw752qiQZYeKXhpK-23" edge="1">
          <mxGeometry width="50" height="50" relative="1" as="geometry">
            <mxPoint x="-59" y="735.8000000000002" as="sourcePoint" />
            <mxPoint x="-580.5" y="400" as="targetPoint" />
          </mxGeometry>
        </mxCell>
        <mxCell id="nofa-I1AIITvJKStnzYU-1" value="roomModule.emit(&#39;play-remote-mediastream&#39;, {track, userId, consumerId});" style="text;strokeColor=none;align=center;fillColor=none;html=1;verticalAlign=middle;whiteSpace=wrap;rounded=0;" vertex="1" parent="1">
          <mxGeometry x="-581.75" y="680" width="238.25" height="50" as="geometry" />
        </mxCell>
        <mxCell id="nofa-I1AIITvJKStnzYU-2" value="" style="endArrow=classic;html=1;rounded=0;exitX=1;exitY=1;exitDx=0;exitDy=0;entryX=0;entryY=1;entryDx=0;entryDy=0;" edge="1" parent="1" source="nofa-I1AIITvJKStnzYU-1" target="nofa-I1AIITvJKStnzYU-1">
          <mxGeometry width="50" height="50" relative="1" as="geometry">
            <mxPoint x="-400" y="540" as="sourcePoint" />
            <mxPoint x="-350" y="490" as="targetPoint" />
          </mxGeometry>
        </mxCell>
      </root>
    </mxGraphModel>
  </diagram>
</mxfile>
